<svg id="Layer_1" enable-background="new 0 0 512 512" height="512" viewBox="0 0 512 512" width="512" xmlns="http://www.w3.org/2000/svg"><path d="m256.998 437c-81.754 1.64-152.65-70.12-150.996-151.768-.002-49.736 52.098-126.157 95.805-181.508 13.408-16.983 33.535-26.725 55.191-26.724 21.664 0 41.779 9.741 55.189 26.724 64.241 81.354 96.813 142.423 96.813 181.509 0 83.685-68.188 151.767-152.002 151.767zm0-320c-9.347 0-18.021 4.196-23.798 11.513-54.602 69.148-87.2 127.736-87.2 156.72 6.105 148.774 216.874 147.731 223-.001 0-28.608-32.15-85.73-88.205-156.72-5.777-7.316-14.451-11.512-23.797-11.512zm-216.998 17v-34c0-33.084 26.916-60 60-60h34c26.536-1.056 26.516-38.953 0-40h-34c-55.14 0-100 44.86-100 100v34c0 11.046 8.954 20 20 20s20-8.954 20-20zm114 358c0-11.046-8.954-20-20-20h-34c-33.084 0-60-26.916-60-60v-34c-1.056-26.536-38.953-26.516-40 0v34c0 55.141 44.86 100 100 100h34c11.046 0 20-8.954 20-20zm358-358v-34c0-55.14-44.86-100-100-100h-34c-26.536 1.056-26.516 38.953 0 40h34c33.084 0 60 26.916 60 60v34c0 11.046 8.954 20 20 20s20-8.954 20-20zm0 278v-34c-1.056-26.536-38.953-26.516-40 0v34c0 33.084-26.916 60-60 60h-34c-26.536 1.056-26.516 38.953 0 40h34c55.14 0 100-44.859 100-100zm-183-126c-1.055-26.527-38.947-26.526-40 0 0 17.644-14.355 32-32 32-26.512 1.042-26.537 38.947 0 40 39.701 0 72-32.299 72-72z"/></svg>