<?xml version="1.0"?>
<svg xmlns="http://www.w3.org/2000/svg" id="Glyph" viewBox="0 0 512 512" width="512" height="512"><path d="M176,152V139.313L212.687,176H200A24.028,24.028,0,0,1,176,152Zm280,24h12.687L432,139.313V152A24.028,24.028,0,0,0,456,176ZM32,360V152a24.028,24.028,0,0,1,24-24H160v24a40.045,40.045,0,0,0,40,40h24V360a24.028,24.028,0,0,1-24,24H56A24.028,24.028,0,0,1,32,360Zm160-32a8,8,0,0,0-8-8H136a8,8,0,0,0,0,16h48A8,8,0,0,0,192,328Zm0-48a8,8,0,0,0-8-8H168a8,8,0,0,0,0,16h16A8,8,0,0,0,192,280Zm-80-48a8,8,0,0,0,8,8h64a8,8,0,0,0,0-16H120A8,8,0,0,0,112,232ZM64,184a8,8,0,0,0,8,8h32a8,8,0,0,0,0-16H72A8,8,0,0,0,64,184Zm0,48a8,8,0,0,0,8,8H88a8,8,0,0,0,0-16H72A8,8,0,0,0,64,232Zm0,48a8,8,0,0,0,8,8h64a8,8,0,0,0,0-16H72A8,8,0,0,0,64,280Zm0,48a8,8,0,0,0,8,8h32a8,8,0,0,0,0-16H72A8,8,0,0,0,64,328ZM456,192h24V360a24.028,24.028,0,0,1-24,24H312a24.028,24.028,0,0,1-24-24V152a24.028,24.028,0,0,1,24-24H416v24A40.045,40.045,0,0,0,456,192Zm-96,64a8,8,0,1,0-8,8A8,8,0,0,0,360,256Zm32,0a8,8,0,1,0-8,8A8,8,0,0,0,392,256Zm32,0a8,8,0,1,0-8,8A8,8,0,0,0,424,256ZM328,80a8,8,0,0,0,8,8h40a8,8,0,0,0,8-8V40a8,8,0,0,0-16,0V55.573c-5.939-3.987-13.93-7.884-24.617-11.447C319.924,36.307,288.891,32,256,32s-63.924,4.307-87.383,12.126C135.047,55.316,128,69.811,128,80a8,8,0,0,0,16,0c0-13.048,43.631-32,112-32,55.231,0,94.312,12.368,107.294,24H336A8,8,0,0,0,328,80Zm48,344a8,8,0,0,0-8,8c0,13.048-43.631,32-112,32-55.231,0-94.312-12.368-107.294-24H176a8,8,0,0,0,0-16H136a8,8,0,0,0-8,8v40a8,8,0,0,0,16,0V456.427c5.939,3.987,13.93,7.884,24.617,11.447C192.076,475.693,223.109,480,256,480s63.924-4.307,87.383-12.126C376.953,456.684,384,442.189,384,432A8,8,0,0,0,376,424Z"/></svg>
